<?xml version="1.0" encoding="utf-8"?>
<!-- Generator: Adobe Illustrator 25.2.3, SVG Export Plug-In . SVG Version: 6.00 Build 0)  -->
<svg version="1.1" id="圖層_1" xmlns="http://www.w3.org/2000/svg" xmlns:xlink="http://www.w3.org/1999/xlink" x="0px" y="0px"
	 viewBox="0 0 841.9 595.3" style="enable-background:new 0 0 841.9 595.3;" xml:space="preserve">
<style type="text/css">
	.st0{fill:#9FA0A0;}
	.st1{fill:#898989;}
	.st2{fill:#007AE9;}
	.st3{fill:#00A0E9;}
	.st4{fill:#727171;}
	.st5{fill:#595757;}
</style>
<g>
	<path class="st0" d="M279,439.6l-27.8,27.8L197.8,414c-5.3-5.3-5.3-13.8,0-19.1l18.3-18.3L279,439.6z"/>
	<path class="st1" d="M342,502.6l-18.3,18.3c-5.3,5.3-13.8,5.3-19.1,0l-53.4-53.4l27.8-27.8L342,502.6z"/>
	
		<rect x="321" y="293" transform="matrix(0.7071 -0.7071 0.7071 0.7071 -91.8313 396.0729)" class="st2" width="222.4" height="31.8"/>
	
		<rect x="298.5" y="270.5" transform="matrix(0.7071 -0.7071 0.7071 0.7071 -82.5225 373.5996)" class="st3" width="222.4" height="31.8"/>
	<path class="st4" d="M342.3,376.3L279,439.6l-79.2-79.2c-5.3-5.3-5.3-13.8,0-19.1L244,297c5.3-5.3,13.8-5.3,19.1,0L342.3,376.3z"/>
	<path class="st5" d="M421.6,474.6l-44.2,44.2c-5.3,5.3-13.8,5.3-19.1,0L279,439.6l63.3-63.3l79.2,79.2
		C426.8,460.7,426.8,469.3,421.6,474.6z"/>
	<path class="st0" d="M590.7,127.9l-27.8,27.8l-63-63l18.3-18.3c5.3-5.3,13.8-5.3,19.1,0L590.7,127.9z"/>
	<path class="st1" d="M644.1,200.4l-18.3,18.3l-63-63l27.8-27.8l53.4,53.4C649.4,186.5,649.4,195.1,644.1,200.4z"/>
	<path class="st4" d="M562.9,155.7L499.6,219l-79.2-79.2c-5.3-5.3-5.3-13.8,0-19.1l44.2-44.2c5.3-5.3,13.8-5.3,19.1,0L562.9,155.7z"
		/>
	<path class="st5" d="M642.1,254l-44.2,44.2c-5.3,5.3-13.8,5.3-19.1,0L499.6,219l63.3-63.3l79.2,79.2
		C647.4,240.2,647.4,248.8,642.1,254z"/>
</g>
</svg>
